# xmcd
#
# Track frame offsets:
#  150
#  12646
#  25561
#  38153
#  49501
#  60439
#  73122
#  84877
#  95040
#  106744
#  119421
#  132921
#  143976
#  157915
#  170328
#  183129
#  195148
#  206765
#  220574
#  232579
#  242542
#  252866
#  266136
#  276666
#  290666
#  304359
#  317220
#  331706
#
# Disc length: 4576 seconds
#
# Revision: 0
# Processed by: cddbd v1.5.1PL2 Copyright (c) Steve Scherf et al.
# Submitted via: Collectorz.com_Music_Collector 6.9
#
DISCID=8411de1c
DTITLE=Various Artist - Sick, Sober and Sorry [CD1] - Great Country Hits Of 1951
DYEAR=2004
DGENRE=Country
TTITLE0=Lefty Frizzell - I Love You A Thousand Ways
TTITLE1=Cowboy Copas - The Strange Little Girl
TTITLE2=Hank Snow - The Golden Rocket
TTITLE3=Arkie Shibley - Hot Rod Race
TTITLE4=Hank Williams - I Can't Help It (If I'm Still In Love With You)
TTITLE5=Hawkshaw Hawkins - I'm Waiting Just For You
TTITLE6=Tennessee Ernie Ford - The Shotgun Boogie
TTITLE7=Eddy Arnold - There's Been A Change In Me
TTITLE8=Margaret Whiting and Jimmy Wakely - I Don't Want To Be Free
TTITLE9=Hank Snow - The Rhumba Boogie
TTITLE10=Pee Wee King - Tennessee Waltz
TTITLE11=Del Wood - Down Yonder
TTITLE12=Moon Mullican - Cherokee Boogie
TTITLE13=Hank Williams - Cold, Cold Heart
TTITLE14=Carl Smith - Let's Live A Little
TTITLE15=Zeb Turner - Chew Tobacco Rag
TTITLE16=Eddy Arnold - Kentucky Waltz
TTITLE17=Lefty Frizzell - I Want To Be With You Always
TTITLE18=Johnny Bond - Sick, Sober And Sorry
TTITLE19=Eddy Arnold - I Wanna Play House With You
TTITLE20=Les Paul and Mary Ford - Mocking Bird Hill
TTITLE21=Hank Williams - Hey Good Lookin'
TTITLE22=Johnnie and Jack - Poison Love
TTITLE23=Lefty Frizzell - Always Late With Your Kisses
TTITLE24=Pee Wee King - Slow Poke
TTITLE25=Carl Smith - Let Old Mother Nature Have Her Way
TTITLE26=Red Foley - There'll Be Peace In The Valley For Me
TTITLE27=Johnnie and Jack - Cryin' Heart Blues
EXTD=
EXTT0=
EXTT1=
EXTT2=
EXTT3=
EXTT4=
EXTT5=
EXTT6=
EXTT7=
EXTT8=
EXTT9=
EXTT10=
EXTT11=
EXTT12=
EXTT13=
EXTT14=
EXTT15=
EXTT16=
EXTT17=
EXTT18=
EXTT19=
EXTT20=
EXTT21=
EXTT22=
EXTT23=
EXTT24=
EXTT25=
EXTT26=
EXTT27=
PLAYORDER=
